<svg xmlns="http://www.w3.org/2000/svg" xmlns:xlink="http://www.w3.org/1999/xlink" width="1240" height="494.2"><rect width="1240" height="494.2" rx="5" ry="5" class="a"/><svg y="0%" x="0%"><circle cx="20" cy="20" r="6" fill="#ff5f58"/><circle cx="40" cy="20" r="6" fill="#ffbd2e"/><circle cx="60" cy="20" r="6" fill="#18c132"/></svg><svg height="434.2" viewBox="0 0 120 43.42" width="1200" x="15" xmlns="http://www.w3.org/2000/svg" xmlns:xlink="http://www.w3.org/1999/xlink" y="50"><style>@keyframes p{0%{transform:translateX(0)}.66%{transform:translateX(-120px)}1.21%{transform:translateX(-240px)}2.22%{transform:translateX(-360px)}2.88%{transform:translateX(-480px)}3.4%{transform:translateX(-600px)}3.79%{transform:translateX(-720px)}7.97%{transform:translateX(-840px)}8.43%{transform:translateX(-960px)}8.86%{transform:translateX(-1080px)}9.74%{transform:translateX(-1200px)}15.39%{transform:translateX(-1320px)}17.9%{transform:translateX(-1440px)}18.66%{transform:translateX(-1560px)}19.51%{transform:translateX(-1680px)}20.13%{transform:translateX(-1800px)}21.11%{transform:translateX(-1920px)}22.81%{transform:translateX(-2040px)}25.78%{transform:translateX(-2160px)}27.15%{transform:translateX(-2280px)}27.94%{transform:translateX(-2400px)}28.62%{transform:translateX(-2520px)}29.37%{transform:translateX(-2640px)}32.32%{transform:translateX(-2760px)}33.26%{transform:translateX(-2880px)}33.92%{transform:translateX(-3000px)}34.83%{transform:translateX(-3120px)}37.64%{transform:translateX(-3240px)}38.43%{transform:translateX(-3360px)}39.02%{transform:translateX(-3480px)}39.54%{transform:translateX(-3600px)}45.29%{transform:translateX(-3720px)}46.86%{transform:translateX(-3840px)}48.1%{transform:translateX(-3960px)}52.05%{transform:translateX(-4080px)}57.52%{transform:translateX(-4200px)}58.34%{transform:translateX(-4320px)}59.16%{transform:translateX(-4440px)}59.98%{transform:translateX(-4560px)}60.8%{transform:translateX(-4680px)}61.61%{transform:translateX(-4800px)}62.43%{transform:translateX(-4920px)}63.25%{transform:translateX(-5040px)}64.07%{transform:translateX(-5160px)}64.89%{transform:translateX(-5280px)}65.36%{transform:translateX(-5400px)}68.06%{transform:translateX(-5520px)}68.11%{transform:translateX(-5640px)}79.27%{transform:translateX(-5760px)}81.62%{transform:translateX(-5880px)}82.65%{transform:translateX(-6000px)}82.79%{transform:translateX(-6120px)}82.93%{transform:translateX(-6240px)}83.06%{transform:translateX(-6360px)}83.21%{transform:translateX(-6480px)}83.34%{transform:translateX(-6600px)}83.48%{transform:translateX(-6720px)}83.62%{transform:translateX(-6840px)}83.76%{transform:translateX(-6960px)}83.9%{transform:translateX(-7080px)}85.24%{transform:translateX(-7200px)}86.52%{transform:translateX(-7320px)}87.54%{transform:translateX(-7440px)}87.68%{transform:translateX(-7560px)}87.82%{transform:translateX(-7680px)}88.28%{transform:translateX(-7800px)}88.9%{transform:translateX(-7920px)}90.84%{transform:translateX(-8040px)}91.33%{transform:translateX(-8160px)}91.52%{transform:translateX(-8280px)}92.08%{transform:translateX(-8400px)}92.44%{transform:translateX(-8520px)}93.09%{transform:translateX(-8640px)}93.58%{transform:translateX(-8760px)}97.04%{transform:translateX(-8880px)}to{transform:translateX(-9240px)}}.a{fill:#282d35}.f{fill:#585858;white-space:pre}.i{fill:#303030}.n{fill:#b9c0cb;white-space:pre}</style><g font-family="Monaco,Consolas,Menlo,'Bitstream Vera Sans Mono','Powerline Symbols',monospace" font-size="1.67"><defs><symbol id="1"><text y="1.67" class="f">Darwin</text><text x="7.014" y="1.67" class="f">dattas-mac-706.local</text><text x="28.056" y="1.67" class="f">18.7.0</text><text x="35.07" y="1.67" class="f">x86_64</text></symbol><symbol id="2"><text y="1.67" class="f">12:58</text><text x="7.014" y="1.67" class="f">up</text><text x="10.02" y="1.67" class="f">6</text><text x="12.024" y="1.67" class="f">days,</text><text x="19.038" y="1.67" class="f">1:01,</text><text x="25.05" y="1.67" class="f">7</text><text x="27.054" y="1.67" class="f">users,</text><text x="34.068" y="1.67" class="f">load</text><text x="39.078" y="1.67" class="f">averages:</text><text x="49.098" y="1.67" class="f">1.34</text><text x="54.108" y="1.67" class="f">1.51</text><text x="59.118" y="1.67" class="f">1.77</text></symbol><symbol id="3"><path fill="#005faf" d="M0 0h9v2.171H0z"/><text y="1.67" style="white-space:pre" fill="#d0d0d0" font-weight="700">◰² base</text><path class="i" d="M9.018 0h2v2.171h-2z"/><text x="9.018" y="1.67" style="white-space:pre" fill="#005faf"></text><path class="i" d="M11.022 0h2v2.171h-2z"/><text x="11.022" y="1.67" style="white-space:pre" fill="#fff" font-weight="700">~</text><text x="13.026" y="1.67" style="white-space:pre" fill="#303030"></text><text x="15.03" y="1.67" style="white-space:pre" fill="#b9c0cb" font-weight="700">bash</text><text x="96.192" y="1.67" class="f">Thu</text><text x="100.2" y="1.67" class="f">Jul</text><text x="104.208" y="1.67" class="f">22</text><text x="107.214" y="1.67" class="f">12:58:52</text><text x="116.232" y="1.67" class="f">2021</text></symbol><symbol id="4"><text y="1.67" class="n">bash-5.0$</text><text x="10.02" y="1.67" class="n">arduino-cli</text></symbol><symbol id="5"><text y="1.67" class="n">bash-5.0$</text><text x="10.02" y="1.67" class="n">arduino-cli</text><text x="22.044" y="1.67" class="n">lib</text></symbol><symbol id="6"><text y="1.67" class="n">bash-5.0$</text><text x="10.02" y="1.67" class="n">arduino-cli</text><text x="22.044" y="1.67" class="n">lib</text><text x="26.052" y="1.67" class="n">search</text></symbol><symbol id="7"><text y="1.67" class="n">bash-5.0$</text><text x="10.02" y="1.67" class="n">arduino-cli</text><text x="22.044" y="1.67" class="n">lib</text><text x="26.052" y="1.67" class="n">search</text><text x="33.066" y="1.67" class="n">TinyMegaI2C</text></symbol><symbol id="8"><text y="1.67" class="n">Updating</text><text x="9.018" y="1.67" class="n">index:</text><text x="16.032" y="1.67" class="n">library_index.json</text><text x="35.07" y="1.67" class="n">4.97</text><text x="40.08" y="1.67" class="n">MiB</text><text x="44.088" y="1.67" class="n">/</text><text x="46.092" y="1.67" class="n">?</text><text x="48.096" y="1.67" class="n">[----------------------------------------------------=]</text><text x="104.208" y="1.67" class="n">52101.12%</text><text x="114.228" y="1.67" class="n">00m01s</text></symbol><symbol id="9"><text y="1.67" class="n">Updating</text><text x="9.018" y="1.67" class="n">index:</text><text x="16.032" y="1.67" class="n">library_index.json</text><text x="35.07" y="1.67" class="n">downloaded</text></symbol><symbol id="10"><text y="1.67" class="n">Name:</text><text x="6.012" y="1.67" class="n">&quot;TinyMegaI2C&quot;</text></symbol><symbol id="11"><text x="2.004" y="1.67" class="n">Author:</text><text x="10.02" y="1.67" class="n">Saurabh</text><text x="18.036" y="1.67" class="n">Datta</text></symbol><symbol id="12"><text x="2.004" y="1.67" class="n">Maintainer:</text><text x="14.028" y="1.67" class="n">Saurabh_Datta</text></symbol><symbol id="13"><text x="2.004" y="1.67" class="n">Sentence:</text><text x="12.024" y="1.67" class="n">An</text><text x="15.03" y="1.67" class="n">efficient</text><text x="25.05" y="1.67" class="n">optimised</text><text x="35.07" y="1.67" class="n">i2c</text><text x="39.078" y="1.67" class="n">library</text><text x="47.094" y="1.67" class="n">for</text><text x="51.102" y="1.67" class="n">new</text><text x="55.11" y="1.67" class="n">ATTINY</text><text x="62.124" y="1.67" class="n">series</text><text x="69.138" y="1.67" class="n">uCs</text></symbol><symbol id="14"><text x="2.004" y="1.67" class="n">Paragraph:</text><text x="13.026" y="1.67" class="n">An</text><text x="16.032" y="1.67" class="n">efficient</text><text x="26.052" y="1.67" class="n">and</text><text x="30.06" y="1.67" class="n">optimised</text><text x="40.08" y="1.67" class="n">i2c</text><text x="44.088" y="1.67" class="n">library</text><text x="52.104" y="1.67" class="n">for</text><text x="56.112" y="1.67" class="n">new</text><text x="60.12" y="1.67" class="n">ATTINY</text><text x="67.134" y="1.67" class="n">series</text><text x="74.148" y="1.67" class="n">uCs</text><text x="78.156" y="1.67" class="n">as</text><text x="81.162" y="1.67" class="n">a</text><text x="83.166" y="1.67" class="n">replacement</text><text x="95.19" y="1.67" class="n">for</text><text x="99.198" y="1.67" class="n">wire</text><text x="104.208" y="1.67" class="n">library</text><text x="112.224" y="1.67" class="n">with</text><text x="117.234" y="1.67" class="n">les</text></symbol><symbol id="15"><text y="1.67" class="n">s</text><text x="2.004" y="1.67" class="n">footprint</text></symbol><symbol id="16"><text x="2.004" y="1.67" class="n">Website:</text><text x="11.022" y="1.67" class="n">https://github.com/dattasaurabh82/</text></symbol><symbol id="17"><text x="2.004" y="1.67" class="n">Category:</text><text x="12.024" y="1.67" class="n">Communication</text></symbol><symbol id="18"><text x="2.004" y="1.67" class="n">Architecture:</text><text x="16.032" y="1.67" class="n">*</text></symbol><symbol id="19"><text x="2.004" y="1.67" class="n">Types:</text><text x="9.018" y="1.67" class="n">Contributed</text></symbol><symbol id="20"><text x="2.004" y="1.67" class="n">Versions:</text><text x="12.024" y="1.67" class="n">[0.0.1]</text></symbol><symbol id="21"><text y="1.67" class="n">bash-5.0$</text><text x="10.02" y="1.67" class="n">arduino-cli</text><text x="22.044" y="1.67" class="n">lib</text><text x="26.052" y="1.67" class="n">install</text><text x="34.068" y="1.67" class="n">TinyMegaI2C</text></symbol><symbol id="22"><text y="1.67" class="n">Downloading</text><text x="12.024" y="1.67" class="n">TinyMegaI2C@0.0.1...</text></symbol><symbol id="23"><text y="1.67" class="n">TinyMegaI2C@0.0.1</text><text x="18.036" y="1.67" class="n">already</text><text x="26.052" y="1.67" class="n">downloaded</text></symbol><symbol id="24"><text y="1.67" class="n">Installing</text><text x="11.022" y="1.67" class="n">TinyMegaI2C@0.0.1...</text></symbol><symbol id="a"><path fill="transparent" d="M0 0h120v20H0z"/></symbol></defs><path class="a" d="M0 0h120v43.42H0z"/><g style="animation-duration:24.483921000000002s;animation-iteration-count:infinite;animation-name:p;animation-timing-function:steps(1,end)"><svg width="9360"><svg><use xlink:href="#a"/><use xlink:href="#1"/><use xlink:href="#2" y="2.171"/><use xlink:href="#3" y="4.342"/><text y="8.183" class="n">bash-5.0$</text><text x="10.02" y="8.183" class="n">a</text></svg><svg x="120"><use xlink:href="#a"/><use xlink:href="#1"/><use xlink:href="#2" y="2.171"/><use xlink:href="#3" y="4.342"/><text y="8.183" class="n">bash-5.0$</text><text x="10.02" y="8.183" class="n">ar</text></svg><svg x="240"><use xlink:href="#a"/><use xlink:href="#1"/><use xlink:href="#2" y="2.171"/><use xlink:href="#3" y="4.342"/><text y="8.183" class="n">bash-5.0$</text><text x="10.02" y="8.183" class="n">ard</text></svg><svg x="360"><use xlink:href="#a"/><use xlink:href="#1"/><use xlink:href="#2" y="2.171"/><use xlink:href="#3" y="4.342"/><text y="8.183" class="n">bash-5.0$</text><text x="10.02" y="8.183" class="n">ardu</text></svg><svg x="480"><use xlink:href="#a"/><use xlink:href="#1"/><use xlink:href="#2" y="2.171"/><use xlink:href="#3" y="4.342"/><text y="8.183" class="n">bash-5.0$</text><text x="10.02" y="8.183" class="n">ardui</text></svg><svg x="600"><use xlink:href="#a"/><use xlink:href="#1"/><use xlink:href="#2" y="2.171"/><use xlink:href="#3" y="4.342"/><text y="8.183" class="n">bash-5.0$</text><text x="10.02" y="8.183" class="n">arduin</text></svg><svg x="720"><use xlink:href="#a"/><use xlink:href="#1"/><use xlink:href="#2" y="2.171"/><use xlink:href="#3" y="4.342"/><text y="8.183" class="n">bash-5.0$</text><text x="10.02" y="8.183" class="n">arduino</text></svg><svg x="840"><use xlink:href="#a"/><use xlink:href="#1"/><use xlink:href="#2" y="2.171"/><use xlink:href="#3" y="4.342"/><text y="8.183" class="n">bash-5.0$</text><text x="10.02" y="8.183" class="n">arduino-</text></svg><svg x="960"><use xlink:href="#a"/><use xlink:href="#1"/><use xlink:href="#2" y="2.171"/><use xlink:href="#3" y="4.342"/><text y="8.183" class="n">bash-5.0$</text><text x="10.02" y="8.183" class="n">arduino-c</text></svg><svg x="1080"><use xlink:href="#a"/><use xlink:href="#1"/><use xlink:href="#2" y="2.171"/><use xlink:href="#3" y="4.342"/><text y="8.183" class="n">bash-5.0$</text><text x="10.02" y="8.183" class="n">arduino-cl</text></svg><svg x="1200"><use xlink:href="#a"/><use xlink:href="#1"/><use xlink:href="#2" y="2.171"/><use xlink:href="#3" y="4.342"/><use xlink:href="#4" y="6.513"/></svg><svg x="1320"><use xlink:href="#a"/><use xlink:href="#1"/><use xlink:href="#2" y="2.171"/><use xlink:href="#3" y="4.342"/><use xlink:href="#4" y="6.513"/></svg><svg x="1440"><use xlink:href="#a"/><use xlink:href="#1"/><use xlink:href="#2" y="2.171"/><use xlink:href="#3" y="4.342"/><text y="8.183" class="n">bash-5.0$</text><text x="10.02" y="8.183" class="n">arduino-cli</text><text x="22.044" y="8.183" class="n">l</text></svg><svg x="1560"><use xlink:href="#a"/><use xlink:href="#1"/><use xlink:href="#2" y="2.171"/><use xlink:href="#3" y="4.342"/><text y="8.183" class="n">bash-5.0$</text><text x="10.02" y="8.183" class="n">arduino-cli</text><text x="22.044" y="8.183" class="n">li</text></svg><svg x="1680"><use xlink:href="#a"/><use xlink:href="#1"/><use xlink:href="#2" y="2.171"/><use xlink:href="#3" y="4.342"/><use xlink:href="#5" y="6.513"/></svg><svg x="1800"><use xlink:href="#a"/><use xlink:href="#1"/><use xlink:href="#2" y="2.171"/><use xlink:href="#3" y="4.342"/><use xlink:href="#5" y="6.513"/></svg><svg x="1920"><use xlink:href="#a"/><use xlink:href="#1"/><use xlink:href="#2" y="2.171"/><use xlink:href="#3" y="4.342"/><text y="8.183" class="n">bash-5.0$</text><text x="10.02" y="8.183" class="n">arduino-cli</text><text x="22.044" y="8.183" class="n">lib</text><text x="26.052" y="8.183" class="n">s</text></svg><svg x="2040"><use xlink:href="#a"/><use xlink:href="#1"/><use xlink:href="#2" y="2.171"/><use xlink:href="#3" y="4.342"/><text y="8.183" class="n">bash-5.0$</text><text x="10.02" y="8.183" class="n">arduino-cli</text><text x="22.044" y="8.183" class="n">lib</text><text x="26.052" y="8.183" class="n">se</text></svg><svg x="2160"><use xlink:href="#a"/><use xlink:href="#1"/><use xlink:href="#2" y="2.171"/><use xlink:href="#3" y="4.342"/><text y="8.183" class="n">bash-5.0$</text><text x="10.02" y="8.183" class="n">arduino-cli</text><text x="22.044" y="8.183" class="n">lib</text><text x="26.052" y="8.183" class="n">sea</text></svg><svg x="2280"><use xlink:href="#a"/><use xlink:href="#1"/><use xlink:href="#2" y="2.171"/><use xlink:href="#3" y="4.342"/><text y="8.183" class="n">bash-5.0$</text><text x="10.02" y="8.183" class="n">arduino-cli</text><text x="22.044" y="8.183" class="n">lib</text><text x="26.052" y="8.183" class="n">sear</text></svg><svg x="2400"><use xlink:href="#a"/><use xlink:href="#1"/><use xlink:href="#2" y="2.171"/><use xlink:href="#3" y="4.342"/><text y="8.183" class="n">bash-5.0$</text><text x="10.02" y="8.183" class="n">arduino-cli</text><text x="22.044" y="8.183" class="n">lib</text><text x="26.052" y="8.183" class="n">searc</text></svg><svg x="2520"><use xlink:href="#a"/><use xlink:href="#1"/><use xlink:href="#2" y="2.171"/><use xlink:href="#3" y="4.342"/><use xlink:href="#6" y="6.513"/></svg><svg x="2640"><use xlink:href="#a"/><use xlink:href="#1"/><use xlink:href="#2" y="2.171"/><use xlink:href="#3" y="4.342"/><use xlink:href="#6" y="6.513"/></svg><svg x="2760"><use xlink:href="#a"/><use xlink:href="#1"/><use xlink:href="#2" y="2.171"/><use xlink:href="#3" y="4.342"/><text y="8.183" class="n">bash-5.0$</text><text x="10.02" y="8.183" class="n">arduino-cli</text><text x="22.044" y="8.183" class="n">lib</text><text x="26.052" y="8.183" class="n">search</text><text x="33.066" y="8.183" class="n">T</text></svg><svg x="2880"><use xlink:href="#a"/><use xlink:href="#1"/><use xlink:href="#2" y="2.171"/><use xlink:href="#3" y="4.342"/><text y="8.183" class="n">bash-5.0$</text><text x="10.02" y="8.183" class="n">arduino-cli</text><text x="22.044" y="8.183" class="n">lib</text><text x="26.052" y="8.183" class="n">search</text><text x="33.066" y="8.183" class="n">Ti</text></svg><svg x="3000"><use xlink:href="#a"/><use xlink:href="#1"/><use xlink:href="#2" y="2.171"/><use xlink:href="#3" y="4.342"/><text y="8.183" class="n">bash-5.0$</text><text x="10.02" y="8.183" class="n">arduino-cli</text><text x="22.044" y="8.183" class="n">lib</text><text x="26.052" y="8.183" class="n">search</text><text x="33.066" y="8.183" class="n">Tin</text></svg><svg x="3120"><use xlink:href="#a"/><use xlink:href="#1"/><use xlink:href="#2" y="2.171"/><use xlink:href="#3" y="4.342"/><text y="8.183" class="n">bash-5.0$</text><text x="10.02" y="8.183" class="n">arduino-cli</text><text x="22.044" y="8.183" class="n">lib</text><text x="26.052" y="8.183" class="n">search</text><text x="33.066" y="8.183" class="n">Tiny</text></svg><svg x="3240"><use xlink:href="#a"/><use xlink:href="#1"/><use xlink:href="#2" y="2.171"/><use xlink:href="#3" y="4.342"/><text y="8.183" class="n">bash-5.0$</text><text x="10.02" y="8.183" class="n">arduino-cli</text><text x="22.044" y="8.183" class="n">lib</text><text x="26.052" y="8.183" class="n">search</text><text x="33.066" y="8.183" class="n">TinyM</text></svg><svg x="3360"><use xlink:href="#a"/><use xlink:href="#1"/><use xlink:href="#2" y="2.171"/><use xlink:href="#3" y="4.342"/><text y="8.183" class="n">bash-5.0$</text><text x="10.02" y="8.183" class="n">arduino-cli</text><text x="22.044" y="8.183" class="n">lib</text><text x="26.052" y="8.183" class="n">search</text><text x="33.066" y="8.183" class="n">TinyMe</text></svg><svg x="3480"><use xlink:href="#a"/><use xlink:href="#1"/><use xlink:href="#2" y="2.171"/><use xlink:href="#3" y="4.342"/><text y="8.183" class="n">bash-5.0$</text><text x="10.02" y="8.183" class="n">arduino-cli</text><text x="22.044" y="8.183" class="n">lib</text><text x="26.052" y="8.183" class="n">search</text><text x="33.066" y="8.183" class="n">TinyMeg</text></svg><svg x="3600"><use xlink:href="#a"/><use xlink:href="#1"/><use xlink:href="#2" y="2.171"/><use xlink:href="#3" y="4.342"/><text y="8.183" class="n">bash-5.0$</text><text x="10.02" y="8.183" class="n">arduino-cli</text><text x="22.044" y="8.183" class="n">lib</text><text x="26.052" y="8.183" class="n">search</text><text x="33.066" y="8.183" class="n">TinyMega</text></svg><svg x="3720"><use xlink:href="#a"/><use xlink:href="#1"/><use xlink:href="#2" y="2.171"/><use xlink:href="#3" y="4.342"/><text y="8.183" class="n">bash-5.0$</text><text x="10.02" y="8.183" class="n">arduino-cli</text><text x="22.044" y="8.183" class="n">lib</text><text x="26.052" y="8.183" class="n">search</text><text x="33.066" y="8.183" class="n">TinyMegaI</text></svg><svg x="3840"><use xlink:href="#a"/><use xlink:href="#1"/><use xlink:href="#2" y="2.171"/><use xlink:href="#3" y="4.342"/><text y="8.183" class="n">bash-5.0$</text><text x="10.02" y="8.183" class="n">arduino-cli</text><text x="22.044" y="8.183" class="n">lib</text><text x="26.052" y="8.183" class="n">search</text><text x="33.066" y="8.183" class="n">TinyMegaI2</text></svg><svg x="3960"><use xlink:href="#a"/><use xlink:href="#1"/><use xlink:href="#2" y="2.171"/><use xlink:href="#3" y="4.342"/><use xlink:href="#7" y="6.513"/></svg><svg x="4080"><use xlink:href="#a"/><use xlink:href="#1"/><use xlink:href="#2" y="2.171"/><use xlink:href="#3" y="4.342"/><use xlink:href="#7" y="6.513"/></svg><svg x="4200"><use xlink:href="#a"/><use xlink:href="#1"/><use xlink:href="#2" y="2.171"/><use xlink:href="#3" y="4.342"/><use xlink:href="#7" y="6.513"/><text x="1.002" y="10.354" class="n">0</text><text x="3.006" y="10.354" class="n">/</text><text x="5.01" y="10.354" class="n">?</text><text x="7.014" y="10.354" class="n">[------------------------------------------------------------------------------------------------------=]</text><text x="115.23" y="10.354" class="n">0.00%</text></svg><svg x="4320"><use xlink:href="#a"/><use xlink:href="#1"/><use xlink:href="#2" y="2.171"/><use xlink:href="#3" y="4.342"/><use xlink:href="#7" y="6.513"/><text y="10.354" class="n">Updating</text><text x="9.018" y="10.354" class="n">index:</text><text x="16.032" y="10.354" class="n">library_index.json</text><text x="35.07" y="10.354" class="n">0</text><text x="37.074" y="10.354" class="n">B</text><text x="39.078" y="10.354" class="n">/</text><text x="41.082" y="10.354" class="n">?</text><text x="46.092" y="10.354" class="n">0.00%-----------------------------------------------------------=]</text><text x="115.23" y="10.354" class="n">0.00%</text></svg><svg x="4440"><use xlink:href="#a"/><use xlink:href="#1"/><use xlink:href="#2" y="2.171"/><use xlink:href="#3" y="4.342"/><use xlink:href="#7" y="6.513"/><text y="10.354" class="n">Updating</text><text x="9.018" y="10.354" class="n">index:</text><text x="16.032" y="10.354" class="n">library_index.json</text><text x="35.07" y="10.354" class="n">467.02</text><text x="42.084" y="10.354" class="n">KiB</text><text x="46.092" y="10.354" class="n">/</text><text x="48.096" y="10.354" class="n">?</text><text x="50.1" y="10.354" class="n">[---------------------=------------------------------------]</text><text x="111.222" y="10.354" class="n">4782.32%</text></svg><svg x="4560"><use xlink:href="#a"/><use xlink:href="#1"/><use xlink:href="#2" y="2.171"/><use xlink:href="#3" y="4.342"/><use xlink:href="#7" y="6.513"/><text y="10.354" class="n">Updating</text><text x="9.018" y="10.354" class="n">index:</text><text x="16.032" y="10.354" class="n">library_index.json</text><text x="35.07" y="10.354" class="n">1.69</text><text x="40.08" y="10.354" class="n">MiB</text><text x="44.088" y="10.354" class="n">/</text><text x="46.092" y="10.354" class="n">?</text><text x="48.096" y="10.354" class="n">[-------=---------------------------------------------------]</text><text x="110.22" y="10.354" class="n">17676.52%</text></svg><svg x="4680"><use xlink:href="#a"/><use xlink:href="#1"/><use xlink:href="#2" y="2.171"/><use xlink:href="#3" y="4.342"/><use xlink:href="#7" y="6.513"/><text y="10.354" class="n">Updating</text><text x="9.018" y="10.354" class="n">index:</text><text x="16.032" y="10.354" class="n">library_index.json</text><text x="35.07" y="10.354" class="n">3.69</text><text x="40.08" y="10.354" class="n">MiB</text><text x="44.088" y="10.354" class="n">/</text><text x="46.092" y="10.354" class="n">?</text><text x="48.096" y="10.354" class="n">[-------------------=---------------------------------------]</text><text x="110.22" y="10.354" class="n">38689.00%</text></svg><svg x="4800"><use xlink:href="#a"/><use xlink:href="#1"/><use xlink:href="#2" y="2.171"/><use xlink:href="#3" y="4.342"/><use xlink:href="#7" y="6.513"/><use xlink:href="#8" y="8.684"/></svg><svg x="4920"><use xlink:href="#a"/><use xlink:href="#1"/><use xlink:href="#2" y="2.171"/><use xlink:href="#3" y="4.342"/><use xlink:href="#7" y="6.513"/><use xlink:href="#8" y="8.684"/></svg><svg x="5040"><use xlink:href="#a"/><use xlink:href="#1"/><use xlink:href="#2" y="2.171"/><use xlink:href="#3" y="4.342"/><use xlink:href="#7" y="6.513"/><text y="10.354" class="n">Updating</text><text x="9.018" y="10.354" class="n">index:</text><text x="16.032" y="10.354" class="n">library_index.json</text><text x="35.07" y="10.354" class="n">8.61</text><text x="40.08" y="10.354" class="n">MiB</text><text x="44.088" y="10.354" class="n">/</text><text x="46.092" y="10.354" class="n">?</text><text x="48.096" y="10.354" class="n">[--------------------------=-------------------------]</text><text x="103.206" y="10.354" class="n">90234.88%</text><text x="113.226" y="10.354" class="n">00m01s</text></svg><svg x="5160"><use xlink:href="#a"/><use xlink:href="#1"/><use xlink:href="#2" y="2.171"/><use xlink:href="#3" y="4.342"/><use xlink:href="#7" y="6.513"/><text y="10.354" class="n">Updating</text><text x="9.018" y="10.354" class="n">index:</text><text x="16.032" y="10.354" class="n">library_index.json</text><text x="35.07" y="10.354" class="n">13.59</text><text x="41.082" y="10.354" class="n">MiB</text><text x="45.09" y="10.354" class="n">/</text><text x="47.094" y="10.354" class="n">?</text><text x="49.098" y="10.354" class="n">[----------------------------------------------=---]</text><text x="102.204" y="10.354" class="n">142522.60%</text><text x="113.226" y="10.354" class="n">00m01s</text></svg><svg x="5280"><use xlink:href="#a"/><use xlink:href="#1"/><use xlink:href="#2" y="2.171"/><use xlink:href="#3" y="4.342"/><use xlink:href="#7" y="6.513"/><text y="10.354" class="n">Updating</text><text x="9.018" y="10.354" class="n">index:</text><text x="16.032" y="10.354" class="n">library_index.json</text><text x="35.07" y="10.354" class="n">18.96</text><text x="41.082" y="10.354" class="n">MiB</text><text x="45.09" y="10.354" class="n">/</text><text x="47.094" y="10.354" class="n">?</text><text x="49.098" y="10.354" class="n">[-------------------------------------------=------]</text><text x="102.204" y="10.354" class="n">198801.64%</text><text x="113.226" y="10.354" class="n">00m01s</text></svg><svg x="5400"><use xlink:href="#a"/><use xlink:href="#1"/><use xlink:href="#2" y="2.171"/><use xlink:href="#3" y="4.342"/><use xlink:href="#7" y="6.513"/><use xlink:href="#9" y="8.684"/></svg><svg x="5520"><use xlink:href="#a"/><use xlink:href="#1"/><use xlink:href="#2" y="2.171"/><use xlink:href="#3" y="4.342"/><use xlink:href="#7" y="6.513"/><use xlink:href="#9" y="8.684"/><use xlink:href="#10" y="10.855"/><use xlink:href="#11" y="13.026"/><use xlink:href="#12" y="15.197"/><use xlink:href="#13" y="17.368"/><use xlink:href="#14" y="19.539"/><use xlink:href="#15" y="21.71"/><use xlink:href="#16" y="23.881"/><use xlink:href="#17" y="26.052"/><use xlink:href="#18" y="28.223"/><use xlink:href="#19" y="30.394"/><use xlink:href="#20" y="32.565"/></svg><svg x="5640"><use xlink:href="#a"/><use xlink:href="#1"/><use xlink:href="#2" y="2.171"/><use xlink:href="#3" y="4.342"/><use xlink:href="#7" y="6.513"/><use xlink:href="#9" y="8.684"/><use xlink:href="#10" y="10.855"/><use xlink:href="#11" y="13.026"/><use xlink:href="#12" y="15.197"/><use xlink:href="#13" y="17.368"/><use xlink:href="#14" y="19.539"/><use xlink:href="#15" y="21.71"/><use xlink:href="#16" y="23.881"/><use xlink:href="#17" y="26.052"/><use xlink:href="#18" y="28.223"/><use xlink:href="#19" y="30.394"/><use xlink:href="#20" y="32.565"/><text y="38.577" class="n">bash-5.0$</text></svg><svg x="5760"><use xlink:href="#a"/><use xlink:href="#1"/><use xlink:href="#2" y="2.171"/><use xlink:href="#3" y="4.342"/><use xlink:href="#7" y="6.513"/><use xlink:href="#9" y="8.684"/><use xlink:href="#10" y="10.855"/><use xlink:href="#11" y="13.026"/><use xlink:href="#12" y="15.197"/><use xlink:href="#13" y="17.368"/><use xlink:href="#14" y="19.539"/><use xlink:href="#15" y="21.71"/><use xlink:href="#16" y="23.881"/><use xlink:href="#17" y="26.052"/><use xlink:href="#18" y="28.223"/><use xlink:href="#19" y="30.394"/><use xlink:href="#20" y="32.565"/><use xlink:href="#7" y="36.907"/></svg><svg x="5880"><use xlink:href="#a"/><use xlink:href="#1"/><use xlink:href="#2" y="2.171"/><use xlink:href="#3" y="4.342"/><use xlink:href="#7" y="6.513"/><use xlink:href="#9" y="8.684"/><use xlink:href="#10" y="10.855"/><use xlink:href="#11" y="13.026"/><use xlink:href="#12" y="15.197"/><use xlink:href="#13" y="17.368"/><use xlink:href="#14" y="19.539"/><use xlink:href="#15" y="21.71"/><use xlink:href="#16" y="23.881"/><use xlink:href="#17" y="26.052"/><use xlink:href="#18" y="28.223"/><use xlink:href="#19" y="30.394"/><use xlink:href="#20" y="32.565"/><use xlink:href="#7" y="36.907"/></svg><svg x="6000"><use xlink:href="#a"/><use xlink:href="#1"/><use xlink:href="#2" y="2.171"/><use xlink:href="#3" y="4.342"/><use xlink:href="#7" y="6.513"/><use xlink:href="#9" y="8.684"/><use xlink:href="#10" y="10.855"/><use xlink:href="#11" y="13.026"/><use xlink:href="#12" y="15.197"/><use xlink:href="#13" y="17.368"/><use xlink:href="#14" y="19.539"/><use xlink:href="#15" y="21.71"/><use xlink:href="#16" y="23.881"/><use xlink:href="#17" y="26.052"/><use xlink:href="#18" y="28.223"/><use xlink:href="#19" y="30.394"/><use xlink:href="#20" y="32.565"/><use xlink:href="#7" y="36.907"/></svg><svg x="6120"><use xlink:href="#a"/><use xlink:href="#1"/><use xlink:href="#2" y="2.171"/><use xlink:href="#3" y="4.342"/><use xlink:href="#7" y="6.513"/><use xlink:href="#9" y="8.684"/><use xlink:href="#10" y="10.855"/><use xlink:href="#11" y="13.026"/><use xlink:href="#12" y="15.197"/><use xlink:href="#13" y="17.368"/><use xlink:href="#14" y="19.539"/><use xlink:href="#15" y="21.71"/><use xlink:href="#16" y="23.881"/><use xlink:href="#17" y="26.052"/><use xlink:href="#18" y="28.223"/><use xlink:href="#19" y="30.394"/><use xlink:href="#20" y="32.565"/><use xlink:href="#7" y="36.907"/></svg><svg x="6240"><use xlink:href="#a"/><use xlink:href="#1"/><use xlink:href="#2" y="2.171"/><use xlink:href="#3" y="4.342"/><use xlink:href="#7" y="6.513"/><use xlink:href="#9" y="8.684"/><use xlink:href="#10" y="10.855"/><use xlink:href="#11" y="13.026"/><use xlink:href="#12" y="15.197"/><use xlink:href="#13" y="17.368"/><use xlink:href="#14" y="19.539"/><use xlink:href="#15" y="21.71"/><use xlink:href="#16" y="23.881"/><use xlink:href="#17" y="26.052"/><use xlink:href="#18" y="28.223"/><use xlink:href="#19" y="30.394"/><use xlink:href="#20" y="32.565"/><use xlink:href="#7" y="36.907"/></svg><svg x="6360"><use xlink:href="#a"/><use xlink:href="#1"/><use xlink:href="#2" y="2.171"/><use xlink:href="#3" y="4.342"/><use xlink:href="#7" y="6.513"/><use xlink:href="#9" y="8.684"/><use xlink:href="#10" y="10.855"/><use xlink:href="#11" y="13.026"/><use xlink:href="#12" y="15.197"/><use xlink:href="#13" y="17.368"/><use xlink:href="#14" y="19.539"/><use xlink:href="#15" y="21.71"/><use xlink:href="#16" y="23.881"/><use xlink:href="#17" y="26.052"/><use xlink:href="#18" y="28.223"/><use xlink:href="#19" y="30.394"/><use xlink:href="#20" y="32.565"/><use xlink:href="#7" y="36.907"/></svg><svg x="6480"><use xlink:href="#a"/><use xlink:href="#1"/><use xlink:href="#2" y="2.171"/><use xlink:href="#3" y="4.342"/><use xlink:href="#7" y="6.513"/><use xlink:href="#9" y="8.684"/><use xlink:href="#10" y="10.855"/><use xlink:href="#11" y="13.026"/><use xlink:href="#12" y="15.197"/><use xlink:href="#13" y="17.368"/><use xlink:href="#14" y="19.539"/><use xlink:href="#15" y="21.71"/><use xlink:href="#16" y="23.881"/><use xlink:href="#17" y="26.052"/><use xlink:href="#18" y="28.223"/><use xlink:href="#19" y="30.394"/><use xlink:href="#20" y="32.565"/><use xlink:href="#7" y="36.907"/></svg><svg x="6600"><use xlink:href="#a"/><use xlink:href="#1"/><use xlink:href="#2" y="2.171"/><use xlink:href="#3" y="4.342"/><use xlink:href="#7" y="6.513"/><use xlink:href="#9" y="8.684"/><use xlink:href="#10" y="10.855"/><use xlink:href="#11" y="13.026"/><use xlink:href="#12" y="15.197"/><use xlink:href="#13" y="17.368"/><use xlink:href="#14" y="19.539"/><use xlink:href="#15" y="21.71"/><use xlink:href="#16" y="23.881"/><use xlink:href="#17" y="26.052"/><use xlink:href="#18" y="28.223"/><use xlink:href="#19" y="30.394"/><use xlink:href="#20" y="32.565"/><use xlink:href="#7" y="36.907"/></svg><svg x="6720"><use xlink:href="#a"/><use xlink:href="#1"/><use xlink:href="#2" y="2.171"/><use xlink:href="#3" y="4.342"/><use xlink:href="#7" y="6.513"/><use xlink:href="#9" y="8.684"/><use xlink:href="#10" y="10.855"/><use xlink:href="#11" y="13.026"/><use xlink:href="#12" y="15.197"/><use xlink:href="#13" y="17.368"/><use xlink:href="#14" y="19.539"/><use xlink:href="#15" y="21.71"/><use xlink:href="#16" y="23.881"/><use xlink:href="#17" y="26.052"/><use xlink:href="#18" y="28.223"/><use xlink:href="#19" y="30.394"/><use xlink:href="#20" y="32.565"/><use xlink:href="#7" y="36.907"/></svg><svg x="6840"><use xlink:href="#a"/><use xlink:href="#1"/><use xlink:href="#2" y="2.171"/><use xlink:href="#3" y="4.342"/><use xlink:href="#7" y="6.513"/><use xlink:href="#9" y="8.684"/><use xlink:href="#10" y="10.855"/><use xlink:href="#11" y="13.026"/><use xlink:href="#12" y="15.197"/><use xlink:href="#13" y="17.368"/><use xlink:href="#14" y="19.539"/><use xlink:href="#15" y="21.71"/><use xlink:href="#16" y="23.881"/><use xlink:href="#17" y="26.052"/><use xlink:href="#18" y="28.223"/><use xlink:href="#19" y="30.394"/><use xlink:href="#20" y="32.565"/><use xlink:href="#7" y="36.907"/></svg><svg x="6960"><use xlink:href="#a"/><use xlink:href="#1"/><use xlink:href="#2" y="2.171"/><use xlink:href="#3" y="4.342"/><use xlink:href="#7" y="6.513"/><use xlink:href="#9" y="8.684"/><use xlink:href="#10" y="10.855"/><use xlink:href="#11" y="13.026"/><use xlink:href="#12" y="15.197"/><use xlink:href="#13" y="17.368"/><use xlink:href="#14" y="19.539"/><use xlink:href="#15" y="21.71"/><use xlink:href="#16" y="23.881"/><use xlink:href="#17" y="26.052"/><use xlink:href="#18" y="28.223"/><use xlink:href="#19" y="30.394"/><use xlink:href="#20" y="32.565"/><use xlink:href="#7" y="36.907"/></svg><svg x="7080"><use xlink:href="#a"/><use xlink:href="#1"/><use xlink:href="#2" y="2.171"/><use xlink:href="#3" y="4.342"/><use xlink:href="#7" y="6.513"/><use xlink:href="#9" y="8.684"/><use xlink:href="#10" y="10.855"/><use xlink:href="#11" y="13.026"/><use xlink:href="#12" y="15.197"/><use xlink:href="#13" y="17.368"/><use xlink:href="#14" y="19.539"/><use xlink:href="#15" y="21.71"/><use xlink:href="#16" y="23.881"/><use xlink:href="#17" y="26.052"/><use xlink:href="#18" y="28.223"/><use xlink:href="#19" y="30.394"/><use xlink:href="#20" y="32.565"/><use xlink:href="#7" y="36.907"/></svg><svg x="7200"><use xlink:href="#a"/><use xlink:href="#1"/><use xlink:href="#2" y="2.171"/><use xlink:href="#3" y="4.342"/><use xlink:href="#7" y="6.513"/><use xlink:href="#9" y="8.684"/><use xlink:href="#10" y="10.855"/><use xlink:href="#11" y="13.026"/><use xlink:href="#12" y="15.197"/><use xlink:href="#13" y="17.368"/><use xlink:href="#14" y="19.539"/><use xlink:href="#15" y="21.71"/><use xlink:href="#16" y="23.881"/><use xlink:href="#17" y="26.052"/><use xlink:href="#18" y="28.223"/><use xlink:href="#19" y="30.394"/><use xlink:href="#20" y="32.565"/><use xlink:href="#7" y="36.907"/></svg><svg x="7320"><use xlink:href="#a"/><use xlink:href="#1"/><use xlink:href="#2" y="2.171"/><use xlink:href="#3" y="4.342"/><use xlink:href="#7" y="6.513"/><use xlink:href="#9" y="8.684"/><use xlink:href="#10" y="10.855"/><use xlink:href="#11" y="13.026"/><use xlink:href="#12" y="15.197"/><use xlink:href="#13" y="17.368"/><use xlink:href="#14" y="19.539"/><use xlink:href="#15" y="21.71"/><use xlink:href="#16" y="23.881"/><use xlink:href="#17" y="26.052"/><use xlink:href="#18" y="28.223"/><use xlink:href="#19" y="30.394"/><use xlink:href="#20" y="32.565"/><text y="38.577" class="n">bash-5.0$</text><text x="10.02" y="38.577" class="n">arduino-cli</text><text x="22.044" y="38.577" class="n">lib</text><text x="26.052" y="38.577" class="n">searc</text><text x="32.064" y="38.577" class="n">TinyMegaI2C</text></svg><svg x="7440"><use xlink:href="#a"/><use xlink:href="#1"/><use xlink:href="#2" y="2.171"/><use xlink:href="#3" y="4.342"/><use xlink:href="#7" y="6.513"/><use xlink:href="#9" y="8.684"/><use xlink:href="#10" y="10.855"/><use xlink:href="#11" y="13.026"/><use xlink:href="#12" y="15.197"/><use xlink:href="#13" y="17.368"/><use xlink:href="#14" y="19.539"/><use xlink:href="#15" y="21.71"/><use xlink:href="#16" y="23.881"/><use xlink:href="#17" y="26.052"/><use xlink:href="#18" y="28.223"/><use xlink:href="#19" y="30.394"/><use xlink:href="#20" y="32.565"/><text y="38.577" class="n">bash-5.0$</text><text x="10.02" y="38.577" class="n">arduino-cli</text><text x="22.044" y="38.577" class="n">lib</text><text x="26.052" y="38.577" class="n">sear</text><text x="31.062" y="38.577" class="n">TinyMegaI2C</text></svg><svg x="7560"><use xlink:href="#a"/><use xlink:href="#1"/><use xlink:href="#2" y="2.171"/><use xlink:href="#3" y="4.342"/><use xlink:href="#7" y="6.513"/><use xlink:href="#9" y="8.684"/><use xlink:href="#10" y="10.855"/><use xlink:href="#11" y="13.026"/><use xlink:href="#12" y="15.197"/><use xlink:href="#13" y="17.368"/><use xlink:href="#14" y="19.539"/><use xlink:href="#15" y="21.71"/><use xlink:href="#16" y="23.881"/><use xlink:href="#17" y="26.052"/><use xlink:href="#18" y="28.223"/><use xlink:href="#19" y="30.394"/><use xlink:href="#20" y="32.565"/><text y="38.577" class="n">bash-5.0$</text><text x="10.02" y="38.577" class="n">arduino-cli</text><text x="22.044" y="38.577" class="n">lib</text><text x="26.052" y="38.577" class="n">sea</text><text x="30.06" y="38.577" class="n">TinyMegaI2C</text></svg><svg x="7680"><use xlink:href="#a"/><use xlink:href="#1"/><use xlink:href="#2" y="2.171"/><use xlink:href="#3" y="4.342"/><use xlink:href="#7" y="6.513"/><use xlink:href="#9" y="8.684"/><use xlink:href="#10" y="10.855"/><use xlink:href="#11" y="13.026"/><use xlink:href="#12" y="15.197"/><use xlink:href="#13" y="17.368"/><use xlink:href="#14" y="19.539"/><use xlink:href="#15" y="21.71"/><use xlink:href="#16" y="23.881"/><use xlink:href="#17" y="26.052"/><use xlink:href="#18" y="28.223"/><use xlink:href="#19" y="30.394"/><use xlink:href="#20" y="32.565"/><text y="38.577" class="n">bash-5.0$</text><text x="10.02" y="38.577" class="n">arduino-cli</text><text x="22.044" y="38.577" class="n">lib</text><text x="26.052" y="38.577" class="n">se</text><text x="29.058" y="38.577" class="n">TinyMegaI2C</text></svg><svg x="7800"><use xlink:href="#a"/><use xlink:href="#1"/><use xlink:href="#2" y="2.171"/><use xlink:href="#3" y="4.342"/><use xlink:href="#7" y="6.513"/><use xlink:href="#9" y="8.684"/><use xlink:href="#10" y="10.855"/><use xlink:href="#11" y="13.026"/><use xlink:href="#12" y="15.197"/><use xlink:href="#13" y="17.368"/><use xlink:href="#14" y="19.539"/><use xlink:href="#15" y="21.71"/><use xlink:href="#16" y="23.881"/><use xlink:href="#17" y="26.052"/><use xlink:href="#18" y="28.223"/><use xlink:href="#19" y="30.394"/><use xlink:href="#20" y="32.565"/><text y="38.577" class="n">bash-5.0$</text><text x="10.02" y="38.577" class="n">arduino-cli</text><text x="22.044" y="38.577" class="n">lib</text><text x="26.052" y="38.577" class="n">s</text><text x="28.056" y="38.577" class="n">TinyMegaI2C</text></svg><svg x="7920"><use xlink:href="#a"/><use xlink:href="#1"/><use xlink:href="#2" y="2.171"/><use xlink:href="#3" y="4.342"/><use xlink:href="#7" y="6.513"/><use xlink:href="#9" y="8.684"/><use xlink:href="#10" y="10.855"/><use xlink:href="#11" y="13.026"/><use xlink:href="#12" y="15.197"/><use xlink:href="#13" y="17.368"/><use xlink:href="#14" y="19.539"/><use xlink:href="#15" y="21.71"/><use xlink:href="#16" y="23.881"/><use xlink:href="#17" y="26.052"/><use xlink:href="#18" y="28.223"/><use xlink:href="#19" y="30.394"/><use xlink:href="#20" y="32.565"/><text y="38.577" class="n">bash-5.0$</text><text x="10.02" y="38.577" class="n">arduino-cli</text><text x="22.044" y="38.577" class="n">lib</text><text x="27.054" y="38.577" class="n">TinyMegaI2C</text></svg><svg x="8040"><use xlink:href="#a"/><use xlink:href="#1"/><use xlink:href="#2" y="2.171"/><use xlink:href="#3" y="4.342"/><use xlink:href="#7" y="6.513"/><use xlink:href="#9" y="8.684"/><use xlink:href="#10" y="10.855"/><use xlink:href="#11" y="13.026"/><use xlink:href="#12" y="15.197"/><use xlink:href="#13" y="17.368"/><use xlink:href="#14" y="19.539"/><use xlink:href="#15" y="21.71"/><use xlink:href="#16" y="23.881"/><use xlink:href="#17" y="26.052"/><use xlink:href="#18" y="28.223"/><use xlink:href="#19" y="30.394"/><use xlink:href="#20" y="32.565"/><text y="38.577" class="n">bash-5.0$</text><text x="10.02" y="38.577" class="n">arduino-cli</text><text x="22.044" y="38.577" class="n">lib</text><text x="26.052" y="38.577" class="n">i</text><text x="28.056" y="38.577" class="n">TinyMegaI2C</text></svg><svg x="8160"><use xlink:href="#a"/><use xlink:href="#1"/><use xlink:href="#2" y="2.171"/><use xlink:href="#3" y="4.342"/><use xlink:href="#7" y="6.513"/><use xlink:href="#9" y="8.684"/><use xlink:href="#10" y="10.855"/><use xlink:href="#11" y="13.026"/><use xlink:href="#12" y="15.197"/><use xlink:href="#13" y="17.368"/><use xlink:href="#14" y="19.539"/><use xlink:href="#15" y="21.71"/><use xlink:href="#16" y="23.881"/><use xlink:href="#17" y="26.052"/><use xlink:href="#18" y="28.223"/><use xlink:href="#19" y="30.394"/><use xlink:href="#20" y="32.565"/><text y="38.577" class="n">bash-5.0$</text><text x="10.02" y="38.577" class="n">arduino-cli</text><text x="22.044" y="38.577" class="n">lib</text><text x="26.052" y="38.577" class="n">in</text><text x="29.058" y="38.577" class="n">TinyMegaI2C</text></svg><svg x="8280"><use xlink:href="#a"/><use xlink:href="#1"/><use xlink:href="#2" y="2.171"/><use xlink:href="#3" y="4.342"/><use xlink:href="#7" y="6.513"/><use xlink:href="#9" y="8.684"/><use xlink:href="#10" y="10.855"/><use xlink:href="#11" y="13.026"/><use xlink:href="#12" y="15.197"/><use xlink:href="#13" y="17.368"/><use xlink:href="#14" y="19.539"/><use xlink:href="#15" y="21.71"/><use xlink:href="#16" y="23.881"/><use xlink:href="#17" y="26.052"/><use xlink:href="#18" y="28.223"/><use xlink:href="#19" y="30.394"/><use xlink:href="#20" y="32.565"/><text y="38.577" class="n">bash-5.0$</text><text x="10.02" y="38.577" class="n">arduino-cli</text><text x="22.044" y="38.577" class="n">lib</text><text x="26.052" y="38.577" class="n">ins</text><text x="30.06" y="38.577" class="n">TinyMegaI2C</text></svg><svg x="8400"><use xlink:href="#a"/><use xlink:href="#1"/><use xlink:href="#2" y="2.171"/><use xlink:href="#3" y="4.342"/><use xlink:href="#7" y="6.513"/><use xlink:href="#9" y="8.684"/><use xlink:href="#10" y="10.855"/><use xlink:href="#11" y="13.026"/><use xlink:href="#12" y="15.197"/><use xlink:href="#13" y="17.368"/><use xlink:href="#14" y="19.539"/><use xlink:href="#15" y="21.71"/><use xlink:href="#16" y="23.881"/><use xlink:href="#17" y="26.052"/><use xlink:href="#18" y="28.223"/><use xlink:href="#19" y="30.394"/><use xlink:href="#20" y="32.565"/><text y="38.577" class="n">bash-5.0$</text><text x="10.02" y="38.577" class="n">arduino-cli</text><text x="22.044" y="38.577" class="n">lib</text><text x="26.052" y="38.577" class="n">inst</text><text x="31.062" y="38.577" class="n">TinyMegaI2C</text></svg><svg x="8520"><use xlink:href="#a"/><use xlink:href="#1"/><use xlink:href="#2" y="2.171"/><use xlink:href="#3" y="4.342"/><use xlink:href="#7" y="6.513"/><use xlink:href="#9" y="8.684"/><use xlink:href="#10" y="10.855"/><use xlink:href="#11" y="13.026"/><use xlink:href="#12" y="15.197"/><use xlink:href="#13" y="17.368"/><use xlink:href="#14" y="19.539"/><use xlink:href="#15" y="21.71"/><use xlink:href="#16" y="23.881"/><use xlink:href="#17" y="26.052"/><use xlink:href="#18" y="28.223"/><use xlink:href="#19" y="30.394"/><use xlink:href="#20" y="32.565"/><text y="38.577" class="n">bash-5.0$</text><text x="10.02" y="38.577" class="n">arduino-cli</text><text x="22.044" y="38.577" class="n">lib</text><text x="26.052" y="38.577" class="n">insta</text><text x="32.064" y="38.577" class="n">TinyMegaI2C</text></svg><svg x="8640"><use xlink:href="#a"/><use xlink:href="#1"/><use xlink:href="#2" y="2.171"/><use xlink:href="#3" y="4.342"/><use xlink:href="#7" y="6.513"/><use xlink:href="#9" y="8.684"/><use xlink:href="#10" y="10.855"/><use xlink:href="#11" y="13.026"/><use xlink:href="#12" y="15.197"/><use xlink:href="#13" y="17.368"/><use xlink:href="#14" y="19.539"/><use xlink:href="#15" y="21.71"/><use xlink:href="#16" y="23.881"/><use xlink:href="#17" y="26.052"/><use xlink:href="#18" y="28.223"/><use xlink:href="#19" y="30.394"/><use xlink:href="#20" y="32.565"/><text y="38.577" class="n">bash-5.0$</text><text x="10.02" y="38.577" class="n">arduino-cli</text><text x="22.044" y="38.577" class="n">lib</text><text x="26.052" y="38.577" class="n">instal</text><text x="33.066" y="38.577" class="n">TinyMegaI2C</text></svg><svg x="8760"><use xlink:href="#a"/><use xlink:href="#1"/><use xlink:href="#2" y="2.171"/><use xlink:href="#3" y="4.342"/><use xlink:href="#7" y="6.513"/><use xlink:href="#9" y="8.684"/><use xlink:href="#10" y="10.855"/><use xlink:href="#11" y="13.026"/><use xlink:href="#12" y="15.197"/><use xlink:href="#13" y="17.368"/><use xlink:href="#14" y="19.539"/><use xlink:href="#15" y="21.71"/><use xlink:href="#16" y="23.881"/><use xlink:href="#17" y="26.052"/><use xlink:href="#18" y="28.223"/><use xlink:href="#19" y="30.394"/><use xlink:href="#20" y="32.565"/><use xlink:href="#21" y="36.907"/></svg><svg x="8880"><use xlink:href="#a"/><use xlink:href="#1"/><use xlink:href="#2" y="2.171"/><use xlink:href="#3" y="4.342"/><use xlink:href="#7" y="6.513"/><use xlink:href="#9" y="8.684"/><use xlink:href="#10" y="10.855"/><use xlink:href="#11" y="13.026"/><use xlink:href="#12" y="15.197"/><use xlink:href="#13" y="17.368"/><use xlink:href="#14" y="19.539"/><use xlink:href="#15" y="21.71"/><use xlink:href="#16" y="23.881"/><use xlink:href="#17" y="26.052"/><use xlink:href="#18" y="28.223"/><use xlink:href="#19" y="30.394"/><use xlink:href="#20" y="32.565"/><use xlink:href="#21" y="36.907"/></svg><svg x="9000"><use xlink:href="#a"/><use xlink:href="#1"/><use xlink:href="#2" y="2.171"/><use xlink:href="#3" y="4.342"/><use xlink:href="#7" y="6.513"/><use xlink:href="#9" y="8.684"/><use xlink:href="#10" y="10.855"/><use xlink:href="#11" y="13.026"/><use xlink:href="#12" y="15.197"/><use xlink:href="#13" y="17.368"/><use xlink:href="#14" y="19.539"/><use xlink:href="#15" y="21.71"/><use xlink:href="#16" y="23.881"/><use xlink:href="#17" y="26.052"/><use xlink:href="#18" y="28.223"/><use xlink:href="#19" y="30.394"/><use xlink:href="#20" y="32.565"/><use xlink:href="#21" y="36.907"/><use xlink:href="#22" y="39.078"/></svg><svg x="9120"><use xlink:href="#a"/><use xlink:href="#3"/><use xlink:href="#7" y="2.171"/><use xlink:href="#9" y="4.342"/><use xlink:href="#10" y="6.513"/><use xlink:href="#11" y="8.684"/><use xlink:href="#12" y="10.855"/><use xlink:href="#13" y="13.026"/><use xlink:href="#14" y="15.197"/><use xlink:href="#15" y="17.368"/><use xlink:href="#16" y="19.539"/><use xlink:href="#17" y="21.71"/><use xlink:href="#18" y="23.881"/><use xlink:href="#19" y="26.052"/><use xlink:href="#20" y="28.223"/><use xlink:href="#21" y="32.565"/><use xlink:href="#22" y="34.736"/><use xlink:href="#23" y="36.907"/><use xlink:href="#24" y="39.078"/></svg><svg x="9240"><use xlink:href="#a"/><use xlink:href="#7"/><use xlink:href="#9" y="2.171"/><use xlink:href="#10" y="4.342"/><use xlink:href="#11" y="6.513"/><use xlink:href="#12" y="8.684"/><use xlink:href="#13" y="10.855"/><use xlink:href="#14" y="13.026"/><use xlink:href="#15" y="15.197"/><use xlink:href="#16" y="17.368"/><use xlink:href="#17" y="19.539"/><use xlink:href="#18" y="21.71"/><use xlink:href="#19" y="23.881"/><use xlink:href="#20" y="26.052"/><use xlink:href="#21" y="30.394"/><use xlink:href="#22" y="32.565"/><use xlink:href="#23" y="34.736"/><use xlink:href="#24" y="36.907"/><text y="40.748" class="n">Already</text><text x="8.016" y="40.748" class="n">installed</text><text x="18.036" y="40.748" class="n">TinyMegaI2C@0.0.1</text></svg></svg></g></g></svg></svg>